<?xml version="1.0" encoding="UTF-8"?>
<svg id="Layer_2" data-name="Layer 2" xmlns="http://www.w3.org/2000/svg" viewBox="0 0 567.01 175.56">
  <defs>
    <style>
      .cls-1 {
        fill: #fff;
      }
    </style>
  </defs>
  <g id="Layer_1-2" data-name="Layer 1">
    <g>
      <path class="cls-1" d="M105.81,120.71c3.76-4.26,7.6-8.89,4.95-14.94l-10.93,2.47c3.54-3.45,8.74-13.97,6.49-18.47-.46-.93-15.3-11.58-16.76-12.22s-2.06-1.03-3.68-.28c-1.08.5-11.22,9.07-11.79,10.23-1.58,3.22-7.23,30.74-7.24,34.68,0,2.08.56,1.83,2.34,1.33,1.43-.4,9.46-4.05,10.12-4.86,3-3.72,6.37-17.77,8.55-22.89,1.72-.25,1.06,2.36.97,3.46-.21,2.75-3.42,21.01-4.27,22.18L3.99,172.57l44.92-47.38-14.97,5.48c3.81-4.84,8.65-8.3,11.52-13.92,1.75-3.44,7.38-19.22,7.5-22.52.12-3.59-2.19-8.75-4.51-11.47l-13.5-8.94c9.54-.27,21.19,2.83,30.46,1.98,1.48-.14,2.87.8,2.48-1.48C44.31,58.96,20.92,42.8,0,23.95l59.88,22.94c1.47-10.15,6.58-23.88-6-28.42L25.96,7.99c24.32,4.74,49.19,2.49,73.86,2.99-.44,1.63-3.49,1.16-5.39,2.08-16.23,7.83-19.79,32.02-16.07,47.78l29.51-24.38c2.32-2.48-.12-9.41,1.11-11.37.25-.4,6.99-2.96,8.51-3.96,8.63-5.63,15.1-13.87,22.26-21.14-2.04,10.84-10.65,19.67-10.99,30.91-4.01-1.57-10.98,5.24-11.95,8.52-.71,2.38,1.01,1.14,2.04,1.04,2.78-.25,5.73-.78,8.42-1.58l.5,1.99-26.96,20.48,30.95,30.92-10.97-2.49c-.6,10.29-.08,20.02,9.04,26.37l8.92,4.55h-32.94Z"/>
      <path class="cls-1" d="M552.03,5c-14.19,11.19-34.48,9.55-51.13,13.23-6.6,1.46-9.65,2.94-10.67,10.29-1.39,9.98-.89,21.24-1.08,31.33l75.86-21.93-22.26,12.15c-8.45,6.04-28.03,16.39-27.72,28.24.12,4.72,4.17,16.1,5.8,21.21,3.74,11.71,8.1,25.08,17.23,33.66l-14.96-5,43.92,47.38-95.42-57.76-5.39-28.01,9.01,15.42c1.6,1.32,24.18,11.11,26.41,11.52s1.1.31,1.04-1.02c-.33-7.04-3.8-22.4-7.69-28.25-7.77-11.69-23.66-14.29-35.76-19.63l12.03-3.59-.08-41.76c.57-3.45-8.71-4.51-5.93-6.96,1.37-1.2,9.04-6.21,10.49-6.48,15.27-2.84,40.96,1.23,57.89,0,6.3-.46,12.41-2.32,18.43-4.02Z"/>
      <path class="cls-1" d="M425.26,10.97l1,84.29c.99,5.21,9.06,2.35,11.98,0V10.97h25.95c-9.07,15.08-3.27,35.25-5.15,52.21l-6.81,4.15,6.77,5.18.98,29.53c-6.03,6.62-15.82,14.64-25.23,14.71-1.12,0-2.78.56-2.51-1.02,4.54-.8,5.35-5.08,5.98-8.98-4.77-1.29-9.53,2.67-13.59,2.96-8.86.62-16.37-17.12-24.33-19.94l.02-1.44c1.19-1.41,2.94-2.64,3.52-4.47,1.47-4.61,1.29-53.49.47-60.43-.4-3.38-2.02-7.92-6.02-7.47.44-.88,3.17-4.98,3.5-4.98h23.46Z"/>
      <path class="cls-1" d="M394.31,10.97c-8.82,10.49,2.86,31.45-16.98,32.42,19.15,5.23,11.03,28.27,13.08,42.8.58,4.09,2.87,5.13,3.9,8.55-10.76,6.15-19.04,18.03-32.93,16.97.55-1.77,2.78-1,4.57-2.9,2.4-2.53,3.14-11.85,3.21-15.54.21-10.62.43-24.34.23-34.86-.19-10.06-3.8-12.84-13.01-15.52v57.36c0,1.15,3.25,5.29,2.99,5.48-12.6-.41-19.19-13.5-28.95-18.96,2.85-3.83,4.6-7.56,5.03-12.41.76-8.47.93-49.28-1.8-55.14-1.08-2.31-2.52-2.52-4.3-3.81-.07-.95,2.04-4.43,2.56-4.43h62.39ZM368.35,36.91v-15.46c0-3.34-9.34-4.18-11.98-3.49v14.46c1.13,2.29,10.71,6.39,11.98,4.49Z"/>
      <path class="cls-1" d="M155.73,10.97v52.37c0,3.75,11.71-1.77,13.02-3.16-1.33-10.08,2.93-35.85-3.51-43.3-.51-.59-1.71-.84-2.51-.95l1.99-4.97h28.95c-1.74,3.36-3.56,6.58-4,10.47-2.7,23.85,2.38,52.06-.44,76.37-2.79,13.49-20.47,20.19-32.5,20.4,4.37-4,11.97-11.69,11.97-17.96v-26.93c0-5.07-13.57,3.72-14.98,4.07-7.37,1.84-17.23-15.31-23.95-17.56l.02-1.44c8.57-8.21,3.41-22.13,5.2-32.72.8-4.72,4.69-9.93,5.75-14.7h14.97Z"/>
      <path class="cls-1" d="M303.47,45.89c.23-1.45-1.73-1.35-2.78-1.7-7.29-2.36-31.15-5.77-32.94-13.98-1.2-5.51,1.77-13.2-6.19-14.75l4.51-4.48,54.38-.02c-.94,4.3,2.58,7.72,2.95,11.59.84,8.94-10.25,10.56-16.43,13.34-1.89-2.38,1.43-1.44,2.07-3.87,3.54-13.32-10.55-15.37-20.53-14.08-.42,4.59.85,10.96,3.99,14.48,6.85,7.69,24.67,7.49,25.97,20.44h-28.45l-1.5,1.5v34.92c0,4.99,11.25,4.01,12.77-1.21,1.35-4.64,1.82-24.62-5.78-25.25,5.95-9.79,22.18-3.12,31.94-3.96-7.07,8.12-4.37,19.84-5.13,29.78-15.31,3.95-23.25,22.34-40.79,21.08,2.75-4.35-1.28-9.01-4.02-12.44-3.41-4.28-9.39-9.95-14.95-10.51-.44-.41,2.9-3.13,3.41-4.06,3.19-5.76,2.33-29.17-1.41-35.14-.58-.92-2.37-.16-2.01-1.69h40.93Z"/>
      <path class="cls-1" d="M259.55,54.87c-12.36-.13-23.04,7.94-33.73,13.17.21,8.18-2.81,18.61,4.76,24.24-10.32,7.96-18.84,20.22-32.92,21.44,1.43-2.16,3.9-2.3,5.21-5.25.98-2.21,1.61-6.65,1.8-9.17,1.88-24.06-1.48-50.53-.04-74.85-.32-3.73-1.87-7.82-5.99-8.5,1.32-3.03,1.99-4.54,5.44-5.01,8.94-1.22,33.63-.85,43.02,0,17.52,1.59,11.31,32.3,12.44,43.94ZM225.6,57.86c3.07-.39,11.35-4.53,12.46-7s.93-28.2-.22-30.67c-1.87-4.01-8.54-1.65-12.24-2.23v39.9Z"/>
    </g>
  </g>
</svg>