<?xml version="1.0" encoding="UTF-8"?>
<svg id="Layer_2" data-name="Layer 2" xmlns="http://www.w3.org/2000/svg" viewBox="0 0 339.39 235.43">
  <defs>
    <style>
      .cls-1 {
        fill: #fff;
      }
    </style>
  </defs>
  <g id="Layer_1-2" data-name="Layer 1">
    <g>
      <path class="cls-1" d="M177.68,0c-4.04,13.61-10.39,27.44-4.22,41.63,2.6,5.97,10.56,10.71,12.7,17.24l-36.51-16.61c-.29-1.39,5.49-20.27,6.65-22.23,4.13-6.99,15.87-12.74,20.39-20.03h1Z"/>
      <path class="cls-1" d="M225.6,120.7c2.02,1.84,9.3-11.51,11.96-11.97l5.96,42.27c-5.71,16.29-15.5,31.09-27.41,43.49l1.3,8.82-37.91,25.46-56.72,6.65,2.78-35.21-20.75-23.15h8.97c-9.21-11.26-12.18-25.98-14.99-39.94l22-57.32,4.12,28.28,7.38,3.4,16.07-27.57,46.86-17.02c1.32-1.17,3.48-9.58,3.23-11.33-.67-4.76-8.46-17.41-10.56-23.39-.48-1.38-1.97-4.03-.74-5.25l33.24,33.62c1.64,13.02-2.21,26.84-.8,39.7.73,6.64,5.36,13.62,6,20.44ZM167.7,216.47v-32.92l7.99,29.93c.73.66,10.09-4.19,10.01-6.48l-4.02-19.46,8.96,12.96c-3.02-15.88-3.81-19.62,14.56-16.04,5.33-.28,22.48-28.35,22.43-34.36-.03-3.42-5.36-11.5-7.61-14.36-3-3.82-10.21-8.71-12.09-11.35s-3.63-12.84-5.56-16.9c-2.81-5.92-8.52-10.39-10.74-16.72-2.58-.3-1.58,0-2.01,1.44-3.3,11.25-5.11,23.09-7.97,34.46l-8.99-17.95-2.22,1.28-7.73,15.67-9.5-23.91-15.7,25.69c-5,.14-20.88,6.35-23.23,10.2-3.51,5.76,8.39,33.21,13.48,38.39,5.14,5.22,17.86-.13,19.78,6.2s-8.12,26.35-7.8,34.21l17.95-28.92-4.83,29.47,2.08,1.25,12.74-1.79Z"/>
      <path class="cls-1" d="M252.55,212.48l18.28-11.16,32.62-26.26c-6.6.5-13.24,2.79-19.96,1.01,9.17-8.82,18.6-18.16,22.95-30.43-5.66,5.04-9.29,12.08-15.95,15.96,6.4-24.57,5.12-51.41-4.26-75.07-.42-1.06-.29-2.97-1.73-2.74,6.49,43.69-10.72,85.96-44.46,113.69-1.34,1.1-10.64,8.75-11.45,8,19.21-21.54,36.07-46.84,41.46-75.77,7.88-42.3-8.98-85.17-38.46-115.26-.15-.77.92-.6,1.5-.5,3.66.61,14.71,7.24,18.38,9.57,37.21,23.64,57.18,67.31,52,111.15,6.46-4.6,8.99-14.16,10.9-21.52,3.79-14.62,3.88-27.06,5.19-41.7.1-1.09.46-5.5,1.86-5.61,8.97,30.7,2.41,63.43-10.97,91.76,1.87.44,2.37-1.04,3.5-1.98,3.99-3.34,7.55-7.97,11.45-11.5l13.99-22.41c-.98,34.36-23.08,65.66-51.89,82.81-.24,1.8,2.17.9,3.23.74,11.45-1.82,24.39-8.66,34.2-14.71.67-.22.72.95.48,1.48-1.08,2.4-15.04,14.64-18.05,16.89-22.3,16.69-50.3,22.33-77.77,19.53l25.58-4.85,21.31-8.61c.03-.89-6.76-2.49-7.47-2.49h-16.47Z"/>
      <path class="cls-1" d="M71.36,212.48c-2.19.21-5.96,1.83-8.48,2.01l7.99,4.46,19.94,6.01,19.97,3.47c-37.1,4.32-72.94-8.61-96.82-37.4l25.42,11.51c3.34.73,6.95,2.18,10.27,2.71,1.06.17,3.47,1.06,3.23-.74C22.72,187.78,2.18,155.35,0,120.71l13.99,22.41,14.94,14.49c-2.91-9.03-7.01-17.74-9.47-26.94-5.83-21.74-7.16-44.14-.49-65.83l3.13,30.28c2.24,11.08,3.9,24.33,9.67,34.23.46.79,3.77,6.86,5.15,5.32-7.14-50.9,22.69-101.9,70.37-120.71l-22.25,31.63c-31.84,57.56-16.4,115.8,27.75,160.9-3.63-1.46-7.38-4.56-10.45-7-35.02-27.74-54.11-72.05-46.46-116.68l-5.7,14.74c-5.86,20.57-5.5,42.23-1.29,63.06-1.88,2.06-11.7-12.47-13.96-12.96,3.98,11,12.9,21.2,21.95,28.43-7.03,1.81-14.01-.68-20.95-1.01l34.62,27.25,17.28,10.16c-5.34.36-11.21-.49-16.47,0Z"/>
      <path class="cls-1" d="M206.54,145.73c2.12,4.78,1.07,12.07-2.05,16.23-5.21,6.94-22.88,2.61-30.8,2.63-.55-2.38.4-1.61,1.3-2.22,5.97-4.07,12.63-8.5,18.99-11.91,2.28-1.22,10.66-6.02,12.56-4.73Z"/>
      <path class="cls-1" d="M158.71,163.59c-14.64,3.23-27.46-.91-26.47-17.96h3.03s23.44,17.96,23.44,17.96Z"/>
    </g>
  </g>
</svg>